# xmcd
#
# Track frame offsets: 
#        150
#        11142
#        25981
#        37189
#        50258
#        62525
#        72764
#        85160
#        100277
#        111953
#
# Disc length: 1630 seconds
#
# Revision: 0
# Processed by: cddbd v1.5.2PL0 Copyright (c) Steve Scherf et al.
# Submitted via: ExactAudioCopy v0.95b4
#
DISCID=81065c0a
DTITLE=Porter Wagoner - Hall of Fame
DYEAR=2006
DGENRE=Classic Country
TTITLE0=Misery Loves Company
TTITLE1=The Cold Hard Facts of Life
TTITLE2=Eat, Drink, and Be Merry (For Tomorrow You'll Cry)
TTITLE3=The Carroll County Accident
TTITLE4=Green, Green Grass of Home
TTITLE5=Big Wind
TTITLE6=A Satisfied Mind
TTITLE7=Skid Row Joe
TTITLE8=What Would You Do? (If Jesus Came to Your House)
TTITLE9=Sorrow On the Rocks
EXTD=
EXTT0=
EXTT1=
EXTT2=
EXTT3=
EXTT4=
EXTT5=
EXTT6=
EXTT7=
EXTT8=
EXTT9=
PLAYORDER=
